<?xml version="1.0" standalone="no"?>
<!DOCTYPE svg PUBLIC "-//W3C//DTD SVG 20010904//EN"
 "http://www.w3.org/TR/2001/REC-SVG-20010904/DTD/svg10.dtd">
<svg version="1.0" xmlns="http://www.w3.org/2000/svg"
 width="389.000000pt" height="375.000000pt" viewBox="0 0 389.000000 375.000000"
 preserveAspectRatio="xMidYMid meet">

<g transform="translate(0.000000,375.000000) scale(0.100000,-0.100000)"
fill="#000000" stroke="none">
<path d="M2207 3669 c5 -5 36 -17 69 -26 32 -9 68 -23 79 -31 18 -13 16 -13
-25 -8 -102 13 -160 16 -160 7 0 -5 33 -14 73 -21 149 -23 399 -107 517 -173
286 -160 585 -559 717 -957 94 -286 123 -548 87 -802 -46 -335 -169 -591 -440
-913 -155 -185 -320 -338 -461 -428 -241 -154 -499 -233 -797 -243 -163 -6
-194 -11 -161 -24 29 -12 196 -12 359 1 240 18 451 76 671 185 224 111 279
149 438 303 173 168 273 306 382 526 64 130 76 161 121 310 43 139 81 407 56
391 -5 -3 -12 -38 -15 -78 -7 -99 -42 -264 -78 -373 -31 -93 -39 -114 -92
-225 -132 -280 -365 -538 -647 -717 -81 -51 -230 -127 -236 -120 -3 3 37 36
88 74 51 39 126 101 167 138 74 69 238 259 321 370 48 64 140 203 140 210 0 3
14 27 30 54 66 107 142 316 176 488 25 122 26 449 1 578 -68 355 -198 648
-405 915 -28 36 -49 67 -46 69 7 7 128 -115 196 -197 126 -153 248 -379 311
-577 20 -60 45 -173 57 -250 35 -226 37 -233 38 -125 1 52 -3 113 -7 135 -5
22 -16 76 -25 120 -33 153 -152 444 -234 569 -15 23 -31 49 -37 58 -100 165
-379 424 -566 525 -30 17 -99 56 -153 88 -55 32 -125 67 -155 77 -31 11 -64
24 -73 29 -15 8 -136 40 -272 73 -12 3 -15 1 -9 -5z"/>
<path d="M966 2891 c-4 -5 2 -7 12 -4 31 8 45 -22 39 -80 -8 -82 -41 -154
-126 -282 -44 -66 -78 -122 -75 -126 2 -4 27 8 55 27 101 68 160 28 160 -106
0 -63 3 -61 -125 -134 -103 -59 -192 -129 -223 -175 -15 -22 -23 -49 -23 -77
0 -36 5 -47 27 -61 109 -72 289 90 347 311 13 53 23 67 88 129 51 48 57 55 18
23 -30 -26 -62 -45 -70 -44 -10 2 -17 22 -22 62 -12 96 -49 131 -122 119 -41
-6 -43 -2 -17 35 103 146 155 308 121 373 -11 19 -54 26 -64 10z m46 -706 c-5
-40 -73 -182 -107 -222 -73 -86 -186 -121 -221 -68 -29 45 -12 92 59 159 64
60 231 166 257 162 10 -1 14 -11 12 -31z"/>
<path d="M639 2842 c-25 -34 -59 -106 -59 -121 0 -3 19 27 41 67 22 39 47 72
55 72 34 0 32 -54 -15 -460 -36 -305 -34 -280 -22 -280 5 0 12 19 16 43 4 23
17 85 30 137 37 152 37 152 25 145 -5 -3 -11 -1 -11 4 -1 6 -2 17 -3 24 -1 6
4 50 11 97 15 104 17 264 3 291 -16 29 -42 22 -71 -19z"/>
<path d="M920 2855 c-13 -14 -22 -27 -19 -29 2 -2 14 10 27 25 29 36 24 38 -8
4z"/>
<path d="M1666 2765 c-13 -29 -19 -78 -22 -180 -5 -116 -9 -145 -24 -166 -19
-26 -19 -27 0 -32 18 -5 20 -14 20 -101 0 -53 3 -96 8 -96 4 0 7 64 8 143 1
209 14 375 29 391 9 9 11 23 6 47 l-8 34 -17 -40z"/>
<path d="M856 2773 c-6 -14 -5 -15 5 -6 7 7 10 15 7 18 -3 3 -9 -2 -12 -12z"/>
<path d="M826 2723 c-6 -14 -5 -15 5 -6 7 7 10 15 7 18 -3 3 -9 -2 -12 -12z"/>
<path d="M266 2675 c-9 -26 -7 -32 5 -12 6 10 9 21 6 23 -2 3 -7 -2 -11 -11z"/>
<path d="M555 2650 c-4 -17 -5 -34 -2 -36 3 -3 8 9 12 26 4 17 5 34 2 36 -3 3
-8 -9 -12 -26z"/>
<path d="M1760 2615 c0 -8 5 -15 10 -15 6 0 10 7 10 15 0 8 -4 15 -10 15 -5 0
-10 -7 -10 -15z"/>
<path d="M241 2604 c0 -11 3 -14 6 -6 3 7 2 16 -1 19 -3 4 -6 -2 -5 -13z"/>
<path d="M543 2555 c0 -27 2 -38 4 -22 2 15 2 37 0 50 -2 12 -4 0 -4 -28z"/>
<path d="M288 2498 c-69 -141 -85 -183 -118 -311 -42 -166 -54 -271 -47 -412
12 -217 19 -289 35 -310 13 -18 14 -17 8 20 -17 112 -18 275 -2 405 17 136 42
278 56 315 28 76 70 227 71 256 0 26 2 30 8 14 7 -17 9 -16 16 10 4 17 9 39
10 50 2 11 6 28 10 38 4 9 5 17 3 17 -3 0 -25 -42 -50 -92z"/>
<path d="M207 2512 c-22 -74 -31 -125 -18 -97 15 33 45 145 39 150 -2 3 -12
-21 -21 -53z"/>
<path d="M746 2545 c-9 -26 -7 -32 5 -12 6 10 9 21 6 23 -2 3 -7 -2 -11 -11z"/>
<path d="M1968 2533 c-44 -51 -110 -157 -100 -161 7 -2 12 -15 12 -28 0 -14 7
-27 15 -31 16 -6 55 22 55 40 0 6 -9 2 -20 -8 -54 -49 -16 81 44 153 15 17 36
32 47 32 10 0 19 5 19 10 0 17 -56 11 -72 -7z"/>
<path d="M1384 2475 c-27 -65 -17 -140 16 -120 8 5 7 10 -5 19 -14 10 -14 16
-1 56 7 25 17 53 21 63 4 10 3 17 -4 17 -7 0 -19 -16 -27 -35z"/>
<path d="M2204 2453 c-43 -95 -47 -108 -31 -95 10 9 16 9 25 0 6 -6 18 -8 28
-4 16 6 16 7 0 19 -17 12 -17 16 2 70 26 77 8 84 -24 10z"/>
<path d="M2489 2483 c-13 -16 -32 -42 -42 -59 -17 -31 -17 -32 7 -36 17 -4 23
-1 19 9 -3 7 1 21 8 30 8 9 14 26 14 37 0 14 7 22 23 24 12 2 22 8 22 13 0 18
-27 8 -51 -18z"/>
<path d="M1269 2478 c-6 -13 -25 -38 -42 -55 -24 -26 -27 -33 -14 -33 13 0 17
-9 17 -34 0 -69 58 -69 80 0 10 29 10 48 0 90 -14 59 -23 66 -41 32z m31 -68
c0 -40 -18 -82 -33 -77 -14 5 -14 51 2 90 13 34 31 27 31 -13z"/>
<path d="M1732 2488 c-7 -7 -12 -37 -12 -68 0 -68 19 -101 58 -99 24 2 25 2 4
6 -32 6 -45 47 -37 116 6 61 6 64 -13 45z"/>
<path d="M1476 2464 c-7 -18 0 -34 15 -34 5 0 9 11 9 25 0 28 -15 34 -24 9z"/>
<path d="M2300 2460 c-8 -16 -8 -20 4 -20 8 0 17 -13 21 -29 3 -16 13 -35 21
-42 12 -10 12 -7 -1 17 -8 16 -15 44 -15 62 0 36 -14 42 -30 12z"/>
<path d="M2007 2436 c-30 -32 -33 -42 -16 -48 9 -3 7 -27 -5 -90 -23 -116 -24
-274 -2 -296 15 -15 17 -15 32 0 15 15 15 16 -2 15 -31 -3 -30 115 1 279 31
163 30 181 -8 140z"/>
<path d="M1500 2393 c0 -6 8 -17 18 -24 16 -13 16 -13 2 6 -8 11 -16 22 -17
24 -2 2 -3 0 -3 -6z"/>
<path d="M172 2350 c0 -14 2 -19 5 -12 2 6 2 18 0 25 -3 6 -5 1 -5 -13z"/>
<path d="M2115 2249 c-4 -6 -5 -12 -2 -15 2 -3 7 2 10 11 7 17 1 20 -8 4z"/>
<path d="M2056 2095 c-9 -26 -7 -32 5 -12 6 10 9 21 6 23 -2 3 -7 -2 -11 -11z"/>
<path d="M1512 1831 c-10 -6 -9 -10 7 -14 29 -7 28 -38 -11 -244 l-32 -173
-103 -50 c-56 -27 -105 -50 -109 -50 -7 0 3 80 13 109 4 9 3 13 -1 10 -4 -4
-14 -35 -23 -70 -14 -57 -24 -72 -85 -133 -97 -97 -132 -172 -91 -194 30 -17
67 6 102 64 19 30 31 57 28 61 -4 3 -11 -7 -17 -23 -20 -50 -59 -94 -86 -94
-52 0 -19 86 64 164 35 32 54 27 47 -12 -3 -15 3 -6 12 20 10 25 27 56 37 67
21 23 169 101 192 101 18 0 18 -44 -1 -185 -8 -60 -14 -162 -13 -225 1 -113 1
-111 25 135 29 294 29 295 50 295 15 0 15 1 0 18 -17 19 -17 23 33 319 7 40 7
70 0 87 -10 28 -17 31 -38 17z"/>
<path d="M1387 1695 c-9 -19 -15 -35 -13 -35 2 0 13 16 25 35 11 19 17 35 13
35 -5 0 -16 -16 -25 -35z"/>
<path d="M1815 1693 c-11 -25 -18 -85 -21 -182 -4 -97 -11 -155 -20 -173 -13
-25 -13 -28 1 -28 12 0 15 -16 15 -94 0 -52 4 -97 9 -100 4 -3 11 106 14 242
3 136 10 261 14 277 7 23 16 31 39 34 29 4 29 4 4 11 -18 5 -24 12 -23 28 4
35 -15 26 -32 -15z"/>
<path d="M2371 1699 c-6 -18 -20 -33 -33 -37 l-22 -5 22 -8 c20 -8 21 -12 15
-136 -4 -101 -10 -135 -24 -159 -18 -30 -18 -32 -2 -30 16 1 19 -12 24 -109 7
-141 8 -133 13 125 7 299 11 320 61 333 18 4 18 5 -2 6 -18 1 -23 7 -23 26 0
35 -16 31 -29 -6z"/>
<path d="M2816 1694 c-9 -36 -5 -331 4 -363 5 -15 9 65 9 182 1 114 -1 207 -3
207 -2 0 -7 -12 -10 -26z"/>
<path d="M1998 1693 c6 -2 18 -2 25 0 6 3 1 5 -13 5 -14 0 -19 -2 -12 -5z"/>
<path d="M2548 1693 c6 -2 18 -2 25 0 6 3 1 5 -13 5 -14 0 -19 -2 -12 -5z"/>
<path d="M1356 1633 c-6 -14 -5 -15 5 -6 7 7 10 15 7 18 -3 3 -9 -2 -12 -12z"/>
<path d="M1658 1623 c7 -3 16 -2 19 1 4 3 -2 6 -13 5 -11 0 -14 -3 -6 -6z"/>
<path d="M2218 1623 c7 -3 16 -2 19 1 4 3 -2 6 -13 5 -11 0 -14 -3 -6 -6z"/>
<path d="M1316 1550 c-22 -56 -19 -65 5 -11 11 24 18 46 15 48 -2 2 -11 -14
-20 -37z"/>
<path d="M2200 1545 c0 -8 5 -15 10 -15 6 0 10 7 10 15 0 8 -4 15 -10 15 -5 0
-10 -7 -10 -15z"/>
<path d="M1286 1465 c-9 -26 -7 -32 5 -12 6 10 9 21 6 23 -2 3 -7 -2 -11 -11z"/>
<path d="M160 1430 c0 -8 5 -22 10 -30 9 -13 10 -13 10 0 0 8 -5 22 -10 30 -9
13 -10 13 -10 0z"/>
<path d="M1565 1417 c-16 -17 -19 -33 -17 -74 2 -39 7 -53 18 -53 20 0 29 27
14 45 -9 11 -9 22 0 50 15 47 10 59 -15 32z"/>
<path d="M2013 1419 c9 -36 11 -154 3 -167 -4 -6 -3 -20 2 -29 6 -11 6 -55 1
-113 -7 -72 -16 -109 -37 -152 -16 -32 -25 -58 -20 -58 14 0 60 108 74 175 7
33 13 90 14 127 0 37 5 70 10 73 6 4 7 12 3 18 -5 7 -12 41 -18 76 -6 39 -16
66 -24 69 -10 3 -12 -2 -8 -19z"/>
<path d="M1898 1383 c-42 -96 -31 -171 21 -144 31 17 45 83 30 142 -7 27 -17
49 -21 49 -5 0 -19 -21 -30 -47z m39 -60 c-5 -49 -19 -69 -37 -58 -13 8 -6 65
11 98 17 30 32 7 26 -40z"/>
<path d="M2159 1385 c-9 -25 -13 -48 -8 -51 5 -3 9 -13 9 -23 0 -10 11 -30 24
-44 26 -28 55 -27 78 1 11 13 10 14 -9 4 -12 -7 -28 -12 -36 -12 -25 0 -40 54
-32 115 8 67 -4 71 -26 10z"/>
<path d="M2466 1407 c-58 -88 -44 -227 16 -159 31 34 39 90 19 140 l-18 46
-17 -27z m34 -65 c0 -33 -20 -74 -39 -80 -11 -4 -13 5 -9 42 8 71 48 103 48
38z"/>
<path d="M1642 1394 c1 -9 9 -19 16 -22 9 -3 13 2 10 14 -1 9 -9 19 -16 22 -9
3 -13 -2 -10 -14z"/>
<path d="M2576 1388 c-22 -32 -20 -40 19 -78 19 -19 35 -42 35 -53 0 -10 5
-28 11 -39 23 -44 -44 -154 -78 -126 -9 7 -13 7 -13 -1 0 -19 30 -25 56 -11
34 19 64 87 64 145 0 44 -4 51 -40 82 -44 38 -49 57 -23 85 14 16 15 18 0 18
-9 0 -23 -10 -31 -22z"/>
<path d="M191 1364 c0 -11 3 -14 6 -6 3 7 2 16 -1 19 -3 4 -6 -2 -5 -13z"/>
<path d="M1662 1330 c0 -14 2 -19 5 -12 2 6 2 18 0 25 -3 6 -5 1 -5 -13z"/>
</g>
</svg>
